<?xml version="1.0" encoding="UTF-8"?>
<svg id="Layer_1" xmlns="http://www.w3.org/2000/svg" version="1.1" viewBox="0 0 521.1068789 172.094988">
  <!-- Generator: Adobe Illustrator 29.3.1, SVG Export Plug-In . SVG Version: 2.1.0 Build 151)  -->
  <defs>
    <style>
      .st0 {
        fill: #7ec141;
      }

      .st1 {
        fill: #0088cf;
      }
    </style>
  </defs>
  <g>
    <g>
      <g>
        <path class="st0" d="M284.2796135,42.6318412h-25.1893401v-23.1355438c0-.2730392-.7654969-1.771977-.9991631-2.118175-2.8984402-4.2943058-13.6146941-3.7686779-14.2917612,2.4204602l-.0722617,79.5429993c.2808521,6.3434501,10.6374507,7.0682635,14.4091813,4.0716,1.1795335-.9371467,2.3933956-3.3243525,2.3933956-4.800517v-25.5330095h-9.8358376v-14.1450475h35.2650761v57.0596832h-14.3939086l-2.2791464-6.7081664c-4.0898868,5.9010982-10.2592698,8.9106662-17.3067748,9.7906982-16.5806594,2.0704506-34.5372283-3.0155148-35.6006584-22.3722068V23.0825723c.6869923-12.5035984,8.1798056-18.8148997,19.8767913-21.3722048,10.8009781-2.3614115,28.3557645-2.4446854,38.109776,3.2401334,13.6726874,7.9686958,9.0994134,24.4970259,9.9146316,37.6813403Z"/>
        <path class="st0" d="M362.486517,45.2690535h-24.9494416v-25.2932629c0-2.484186-2.7263156-4.6126811-4.9752246-5.0972597-5.2998549-1.1419743-10.8666904.7547744-10.6297562,7.0036598l.0001632,76.0226438c.1829778,6.0022136,4.0844218,7.5380448,9.4960661,7.0697514,2.1788251-.1885433,4.4424643-1.1521402,5.4319862-3.2023127.1259687-.2609922.6767653-1.8191424.6767653-1.9608755v-27.6907286h24.9494416v27.2112355c0,9.9238404-9.5077381,16.6807558-18.2296341,18.7028808-16.4137898,3.8054494-48.8098191,2.3986294-49.4332904-20.6093066l.0015098-75.302007c.5012651-23.5061992,36.439029-24.8480118,52.4964672-19.5978697,7.5599687,2.4718084,15.1649476,9.3855232,15.1649476,17.9296816v24.8137698Z"/>
      </g>
      <g>
        <path class="st1" d="M510.7437759,116.2340376l-.1183838-3.1151245c-3.8340625,3.7578855-8.8834978,4.9202512-13.9589564,2.9186298-6.6582192-2.6258186-7.9337117-11.5886501-8.2430962-17.8944994-.2497527-5.0904371-.2329993-11.4663659-.0015451-16.5638009.3385047-7.455062,1.9204722-19.2496013,11.1962236-20.2176644,4.6677835-.4871529,7.64234.9079923,11.1257579,3.8064404v-24.5740232c0-.025429.3344026-.3596199.3598477-.3596199h9.5959391c.0254451,0,.3598477.3341909.3598477.3596199v75.2804224c0,.025429-.3344026.3596199-.3598477.3596199h-9.9557868ZM503.9747947,69.299442c-3.9375072.4273652-5.008808,5.1410809-5.2357745,8.4454459-.4280261,6.2315567-.3868265,15.5820494-.000219,21.8368078.3201549,5.1796504,1.0606991,9.8490517,7.3246008,9.2180021,1.0854497-.1093524,4.4607649-1.1706824,4.6753555-2.2804113l.0167081-34.2904264c.0068157-.8686472-1.4483289-1.5708342-2.174762-1.9023067-1.2084165-.5514023-3.2813472-1.1708753-4.605909-1.0271113Z"/>
        <path class="st1" d="M422.171686,61.4024263c13.2754013-1.3465197,18.1367842,5.6884546,18.771518,18.0206344.3993322,7.7585853.852652,24.0635518-2.6041438,30.7420356-4.4294544,8.5576475-19.6330853,9.2015668-25.3338047,1.9731533-4.9335394-6.2556426-4.296722-22.6476151-3.9883283-30.5574791.3619907-9.2845536,2.1055356-19.057625,13.1547587-20.1783442ZM424.8173271,68.8205381c-3.462912.1304546-4.7456261,2.495988-5.2059384,5.6067391-.9784515,6.6122912-.6259607,19.1729947-.2788106,26.113232.0694537,1.3885206.2347728,3.6100744.6052923,4.9092621.9378784,3.2885721,3.2316786,4.2362121,6.4873675,3.8375404,3.3566606-.4110361,4.029016-4.5865437,4.2024821-7.3081658.4708216-7.3870253.4701186-18.2855334,0-25.6729409-.2437949-3.8309746-1.1748876-7.6602954-5.8103928-7.4856669Z"/>
        <path class="st1" d="M461.7549306,61.4024222c12.3988131-1.2646946,18.0055211,4.8953004,18.759347,16.8340732.4001691,6.3377077.4001221,15.4746282,0,21.8123602-.7164223,11.3477676-5.916802,17.805211-17.8794118,16.9136839-9.6053916-.7158528-13.2141339-7.8731352-13.7826003-16.6739438-.416851-6.4535482-.4118091-15.8448398-.0123476-22.3041801.507111-8.2000446,3.8813536-15.6605487,12.9150127-16.5819933ZM464.400519,68.8204511c-1.9072255.0706878-3.4725656.9324726-4.3184095,2.6577911-1.0239296,2.0885705-1.0813761,6.2513839-1.1662986,8.6640493-.2016804,5.7297835-.2060247,12.2722749,0,18.000768.1004369,2.7926374.09231,7.2629205,1.7290015,9.540182,1.1894461,1.6549728,3.4707575,1.8352836,5.3636842,1.6040802,2.9996511-.3663796,3.9936873-3.8143808,4.1894694-6.3621839.6772762-8.8137088-.5080078-18.437543.0128379-27.3380078-.3096716-3.7369784-1.4336232-6.9288918-5.8102849-6.7666788Z"/>
        <path class="st1" d="M396.7919992,62.0513132h8.1565482v7.3122703c0,.025429-.3344026.3596199-.3598477.3596199h-7.7967005v46.1512144c0,.025429-.3344026.3596199-.3598477.3596199h-9.9557868v-46.5108342h-6.1174112c-.0254451,0-.3598477-.3341909-.3598477-.3596199v-6.9526505c0-.025429.3344026-.3596199.3598477-.3596199h6.1174112c.0324278-3.8056768-.062987-7.9934664.8821667-11.7050867,1.8039568-7.0841409,7.8132311-7.5811444,14.1090391-7.2324447,1.0055102.0556912,2.690615.1760828,3.4809769.596919v7.192397c0,.5615479-2.301129-.0963821-2.7614643-.1163888-1.7265428-.0750377-3.4878916-.1522422-4.4846538,1.5057356-.2624415.4365357-.9104302,2.2764075-.9104302,2.6863449v7.0725238Z"/>
      </g>
    </g>
    <path class="st1" d="M231.7335551,141.8725948l-3.8173475.96602c-.4438249-3.2794015-1.0840834-6.4282619-5.2463151-5.3429778-2.3983866.625369-2.5362447,3.9103585-1.4432948,5.6696293,1.8597586,2.9935671,6.8635078,5.6143953,9.1739994,9.052551,4.4053888,6.5554935.4205703,14.6181975-7.8374893,12.867432-4.1834337-.8869167-5.9218438-4.9018265-6.0774534-8.8211471l3.9796154-1.190681c.1824949,1.7706475.3877791,4.2980569,1.6832651,5.6309771,1.7050683,1.7543376,5.44624,1.1849337,5.7602754-1.4304692.9323094-7.7646163-10.6461039-9.4255551-11.2893137-17.0188317-.32417-3.8269194.895768-7.0661904,4.8554914-8.1111714,6.0370285-1.593187,9.8685224,1.7359576,10.258567,7.728669Z"/>
    <g>
      <path class="st0" d="M153.5348774,91.5425378c-5.3679573,6.5210653-12.4728293,11.8282075-19.7502175,16.101938-15.8071753,9.2829467-34.2034249,14.8742503-52.2181109,17.9420616l2.3461932.8883245c11.0722978,2.8296529,23.4088588,4.1979889,34.2794395-.1292316,9.3555375-3.7241316,19.7997772-9.9217549,28.3654151-15.2864219,13.2002683-8.2673403,25.6577926-20.4764355,42.5461169-13.9487782,1.8268831.7061249,3.4648169,1.7358843,5.2138919,2.5849636-4.8082056,4.800825-9.8240057,9.4596577-14.8702678,14.0246617-10.4419253,9.4460871-21.1605024,18.7924847-32.2797904,27.4375453-15.4991508,12.0503307-38.2849331,30.4420757-59.1173191,22.179073-27.2626652-10.8135225-51.1402086-32.1707444-76.6138413-46.4246618C7.6941315,114.8180114,3.8754781,112.7956501.0003675,110.9560817c5.0693873-8.9612713,13.3732162-17.1750318,22.5447984-21.9384852,23.2666045-12.0839985,57.3658579-2.7382259,82.2010589.3342234,7.5307893.9316602,15.6839184,1.7999282,23.2408625,2.4267369,8.5074515.7056483,17.0648637.7087815,25.54779-.236019Z"/>
      <path class="st1" d="M194.3172362,54.8624479c-8.0329967,14.1186094-22.4295117,24.8966142-38.7740041,27.0570016-13.7161363,1.8129757-28.7432943.2329497-42.3911644-1.6873895-16.5759231-2.3323342-32.9095745-5.3043863-49.7015802-6.4305889-7.5562652-.5067819-15.1475618-.3165421-22.6677623.4745204,5.3679574-6.5210654,12.4728294-11.8282076,19.7502175-16.101938,15.8071745-9.2829462,34.2034258-14.8742518,52.2181092-17.9420599l-1.9740184-.7807778c-11.1756673-2.9369673-23.6569977-4.3549629-34.6516125.0216832-10.2618427,4.0849502-21.6725638,10.9916796-31.0043074,16.9646389-11.4937038,7.3567628-22.1403509,17.1800086-37.0165323,13.2176445-2.8863234-.7687903-5.4733406-2.1756321-8.1045812-3.5320421,4.7249876-4.7261636,9.6685222-9.2934794,14.6303662-13.7849198,15.0206228-13.5966047,30.6244899-26.9693677,47.1878907-38.6712611,13.6034869-9.6107409,29.7551142-17.4619188,46.2982771-10.3958805,27.0191218,11.5406075,49.8200078,31.7140651,75.2445435,45.8751199,3.591489,2.0004013,7.2454478,3.9446055,10.9561587,5.7162491Z"/>
    </g>
  </g>
  <path class="st1" d="M384.3172784,147.4010915h7.6767513v-13.066188c0-.025429.3344026-.3596199.3598477-.3596199h3.8383756c.0254451,0,.3598477.3341909.3598477.3596199v30.2080676c0,.025429-.3344026.3596199-.3598477.3596199h-4.1982234v-14.3847941h-7.6767513v14.3847941h-4.1982234c-.0254451,0-.3598477-.3341909-.3598477-.3596199v-30.2080676c0-.025429.3344026-.3596199.3598477-.3596199h3.8383756c.0254451,0,.3598477.3341909.3598477.3596199v13.066188Z"/>
  <path class="st1" d="M346.1734206,164.9025909h-4.3181726c-.0479217,0,.0585803-.8885747-.0012608-.9578269-1.0439007.4671257-1.5041626,1.0638902-2.7560453,1.1974351-2.4034572.2563894-4.1528389-.5203052-5.2048938-2.711426-1.3922333-2.8996124-1.2620465-13.0573518-.2613767-16.1755271,1.2691122-3.9546654,5.0944137-4.8233825,8.2235765-2.2106066v-9.709736c0-.025429.3344026-.3596199.3598477-.3596199h3.5984772c.0254451,0,.3598477.3341909.3598477.3596199v30.5676874ZM341.816076,146.7199437c-1.8790611-1.1126829-4.0253104-1.2680457-4.4613805,1.3379966-.3513512,2.0997454-.2909496,8.9807047-.0309331,11.1840377.2406082,2.0388705,1.2137767,2.984,3.3387367,2.4288701.4318021-.1128051,1.1554147-.4773456,1.1938989-.9626711l-.040322-13.9882332Z"/>
  <path class="st1" d="M438.0545373,142.8459067c.0741326.074165-.0546959,1.1456586.0024002,1.4384213,2.186989-2.2538458,6.4131964-2.5132547,7.9564494.5572513,1.7178867,3.4179629,1.7424837,14.9707249-.320885,18.2241503-1.7252197,2.7202477-5.2872313,2.7306636-7.5226573.6415431-.7317126-.0645542-.1153074.2592692-.1153074.3562052v7.6718902c0,.025429-.3344026.3596199-.3598477.3596199h-3.9583249v-29.2490813c.6170365.1135839,4.1655839-.1526554,4.3181726,0ZM439.9122901,146.0190879c-.6592192.1060582-1.7316502.5213397-1.8525209,1.2673587l-.0055832,13.4209306c.2088231,1.1199092,3.6602078,1.790232,4.3768239.0579071.6588405-1.5926598.6076557-9.5326322.4174344-11.5620335-.1868101-1.9930078-.6027548-3.5595707-2.9361542-3.1841628Z"/>
  <path class="st1" d="M421.0217454,163.4641115v8.6308765h-4.0782741v-29.2490813h4.0782741c.0839612,0-.0629289,1.456282.0023992,1.6781596,1.9836358-2.2921551,6.0815595-2.9151051,7.8754193-.0810002,2.046781,3.2336934,1.8472453,13.6520948.5232354,17.2275505-1.5328837,4.1395141-5.2334617,4.608755-8.4010539,1.793495ZM421.0723965,146.9702018l-.0039818,13.690185c.6112797,1.0956394,3.1089778,1.5497963,4.0253256.7597825.6378108-.5498779.9007251-2.9421975.9634135-3.8323068.1366104-1.939724.245431-9.9081356-.8451489-11.1379037-.8500571-.958548-3.6694265-.2866242-4.1396084.520243Z"/>
  <path class="st1" d="M245.5730304,143.8882994c.9213793.8587612,1.6362373,2.8689855,1.7599387,4.1144359.39151,3.9417996-.1472451,8.6483368-.0076048,12.7141694.0256263.7461464.5605503,3.391988.4619465,3.8073812-.1296694.5462652-3.4814579.513187-3.8245206.2722946-.4460771-.3132272-.3573495-2.0242177-.5847686-2.5300887-4.7443713,7.528338-12.136383-.8060397-7.4172875-6.933113,1.6353548-2.1232753,4.6466163-3.0812039,7.0159042-4.1356023.0168538-1.9319563.7575166-6.0294786-2.3680691-5.3814832-2.528383.5241835-1.2527,3.6724782-1.8945542,4.1172844-1.3717697.4072017-2.7161121-.2546831-4.0947945-.1338361-.2641201-5.2371128,3.0937306-7.8741981,8.2153835-7.131178.8274953.1200483,2.1282229.6510026,2.7384262,1.2197357ZM243.0170754,153.8742488c-2.5637772,1.1891532-5.6018099,3.742053-3.8940154,6.888339,1.043637,1.9227022,3.8940154-.2030312,3.8940154-.7748015v-6.1135375Z"/>
  <path class="st1" d="M409.2643821,162.2653934c-.9979547,1.2419054-1.731651,2.59949-3.4964024,2.8553242-4.989327.7232975-6.5611448-5.005033-4.700821-8.7721157,1.4708407-2.9783947,5.0401583-3.8315826,7.7285716-5.2733005-.1838343-1.6514867.7327545-5.0279013-1.6320814-5.3079897-3.2592661-.3860237-2.1351627,3.7881009-2.6797862,4.1662661-1.3717865.4072117-2.7161568-.2546863-4.0948419-.1338676-.1207553-5.2609512,3.0140986-7.8837312,8.2154349-7.1311384,1.6866633.244047,3.0255622,1.175403,3.7508436,2.7247556,1.477833,3.1569601.6119414,11.2024975.7399194,15.0838232.0405962,1.231205.330693,2.790504.4618572,4.0471499-.1301025.5474359-3.4992089.510567-3.8267654.2746065-.3179273-.2290239-.4425585-2.0401914-.4659284-2.5335137ZM408.7869231,159.9877863c.3904432-1.3708689-.2896813-4.5258771,0-6.1135375-1.4212366.9800303-3.2783834,1.6215675-3.9554751,3.3593851-.7430455,1.907094-.1962332,5.2698618,2.455341,4.1302678.2382-.1023736,1.4592001-1.2323937,1.5001341-1.3761154Z"/>
  <path class="st1" d="M305.5685962,142.6641031c2.9425222-.463817,6.0448919.1267455,7.3780524,3.0595947,1.3471734,2.9636766,1.3574997,14.3349097-.3978072,17.1022796-2.2076001,3.4804434-8.9100044,3.2128397-10.7996536-.6374848-1.3554235-2.7617933-1.2980562-13.0169537-.2648639-15.9341974.6414269-1.8110845,2.133587-3.2827141,4.0842723-3.5901921ZM306.7644909,145.7701246c-.9791797.213783-1.4706366,1.3510668-1.5925787,2.2514512-.3116983,2.3014888-.3073877,9.4035868-.0266546,11.7319838.3566813,2.9583097,3.8838504,3.1519879,4.3018144.2123589.3327414-2.3402404.2959158-9.5592032.0216934-11.9652724-.1696975-1.4889519-1.1039408-2.5799202-2.7042745-2.2305214Z"/>
  <path class="st1" d="M321.6413815,142.6636906c5.1278364-.7933087,7.7309024,1.5470046,8.1880639,6.5663593.3050586,3.3493574.4747815,11.3437154-1.5498593,13.9729306-2.2695859,2.9473029-8.4235958,2.7278576-10.3069391-.6851607-1.4591591-2.6443065-1.4463712-12.4006185-.7087369-15.3582178.5700436-2.2856317,1.9395758-4.1187535,4.3774714-4.4959114ZM322.8370264,145.7694358c-.9294122.2050371-1.4679994,1.1374494-1.5912608,2.0130485-.3464058,2.4607262-.2717298,9.1670252-.0309903,11.7350067.3258283,3.4756291,3.8811283,3.345415,4.306245.2094308.3336986-2.4616149.2577311-8.6947227.0308848-11.2567181-.141793-1.6014065-.8270351-3.117244-2.7148787-2.7007679Z"/>
  <path class="st1" d="M265.8074307,154.1139954v6.1135375c0,1.7472247,3.7070492,2.9371794,4.2628307.1844411.1269965-.6290031-.1655573-3.4210198.4151896-3.4210198h3.5984772c1.1442713,0-.3785189,5.1259959-.9748155,5.9784523-2.1622903,3.0911769-8.3526986,3.0689288-10.3815941-.1434049-1.8914949-2.9947886-1.8496507-15.4015623.3420638-18.2808979,2.1135634-2.7766657,8.0427603-2.7030398,10.0393283.2341894.6988384,1.0280884,1.3348651,3.6895958,1.3348651,4.8993909v4.0756917c0,.025429-.3344026.3596199-.3598477.3596199h-8.2764975ZM270.1256033,151.7165297v-4.1955649c0-1.6909226-2.6876016-2.5209783-3.7151103-1.0756643-.1334776.1877523-.6030623,1.415104-.6030623,1.5551575v3.7160718h4.3181726Z"/>
  <path class="st1" d="M512.4230652,154.1139954v6.3532841c0,.0614885.5208283.9690787.611601,1.0671238.5107787.5517011,1.4177278.5873426,2.1309011.4771995,2.4187909-.3735602,1.0794172-5.0206485,1.9355183-5.0206485h3.7184264c.331228,3.5054151-.617076,7.6239626-4.7046203,8.124872-2.7465023.336571-5.8828662-.1102567-7.1733001-2.8475036-1.3805175-2.9283309-1.3442636-14.7751895.4982459-17.48895,2.21038-3.2555827,8.9767017-3.1011434,10.6652437.8183583.6035544,1.4009913,1.1496298,6.1913158.9654898,7.6904086-.0294884.2400669-.1065494.8258558-.3710082.8258558h-8.2764975ZM516.7412378,151.7165297v-3.7160718c0-.1241212-.3612675-1.2842763-.4645485-1.4537311-.9350361-1.5341285-3.8536241-.7740973-3.8536241.9742379v4.1955649h4.3181726Z"/>
  <path class="st1" d="M453.1681414,142.8459067l2.7588472,15.5859586,2.7588178-15.5859586h4.3181726l-5.5497346,24.3022273c-1.1288873,2.9026663-4.6690832,3.3915492-7.4047831,3.268628v-3.356452c1.2705133-.0487652,4.1317438.300585,4.0565737-1.5277589l-5.256066-22.6866445h4.3181726Z"/>
  <path class="st1" d="M291.2366693,137.3317356v10.0693559h5.9974619v3.1167054h-5.9974619v14.3847941h-4.3181726v-30.9273073h11.6350761c.5397851,0,.5397868,3.356452,0,3.356452h-7.3169036Z"/>
  <path class="st1" d="M478.8372784,161.546139h7.6767513v3.356452h-12.2348223v-30.5676874c0-.025429.3344026-.3596199.3598477-.3596199h3.8383756c.0254451,0,.3598477.3341909.3598477.3596199v27.2112355Z"/>
  <path class="st1" d="M252.373116,139.3695814c.1542463-1.3115295.8740939-3.0048048,2.0951327-3.6601117,1.0877059-.5837499,5.3219758-1.0628957,5.5844829.3002767.8304091,4.31223-2.587399,1.2802601-3.2530735,3.4681292-.3053988,1.0037526-.0050585,2.3174108-.109616,3.3692718,3.2737804-.138391,3.6540559-.3938358,3.3598253,3.1154647h-3.3585787v18.580359c0,.025429-.3344026.3596199-.3598477.3596199h-3.9583249v-18.9399789l-2.6430755-.1380677.0029499-2.9798805,2.6401255.0012428c.0924186-1.1117551-.1278087-2.3895899,0-3.4763252Z"/>
  <path class="st1" d="M498.9887505,138.8900883c.5192383-3.6805866,4.3471393-4.2785551,7.4105917-3.4509641l.0274956,3.0925911c-3.6605417-.6643183-3.3157472,1.4543984-3.3598131,4.3141913h3.3585787v3.1167054h-3.3585787v18.9399789h-4.0782741v-18.9399789l-2.6430755-.1380677.0029499-2.9798805,2.6401255.0012428c.1231931-1.24101-.1692612-2.7560216,0-3.9558184Z"/>
  <rect class="st1" x="489.1529129" y="142.8459067" width="4.3181726" height="22.0566843"/>
  <path class="st1" d="M358.8016038,151.7500167h8.0895219c.6211502.8389349.86054,3.1749101-.434673,3.3345676-.8457802.1042571-7.1430194.1247197-7.6548489-.0450897-.6113362-.2028226-.6162096-3.087948,0-3.289478Z"/>
  <rect class="st1" x="489.1529129" y="135.4137631" width="4.3181726" height="4.3154382"/>
</svg>